<svg width="19" height="20" viewBox="0 0 19 20" fill="none" xmlns="http://www.w3.org/2000/svg">
<circle cx="9.5" cy="10" r="9.5" fill="#AADB1E" fill-opacity="0.3"/>
<circle cx="7" cy="8.5" r="1" fill="black"/>
<circle cx="12" cy="8.5" r="1" fill="black"/>
<mask id="path-4-inside-1_350_23508" fill="white">
<path d="M15 10.5C15 11.2879 14.8577 12.0681 14.5813 12.7961C14.3049 13.5241 13.8998 14.1855 13.3891 14.7426C12.8784 15.2998 12.272 15.7417 11.6048 16.0433C10.9375 16.3448 10.2223 16.5 9.5 16.5C8.77773 16.5 8.06253 16.3448 7.39524 16.0433C6.72795 15.7417 6.12163 15.2998 5.61091 14.7426C5.10019 14.1855 4.69506 13.5241 4.41866 12.7961C4.14226 12.0681 4 11.2879 4 10.5H4.92548C4.92548 11.1553 5.0438 11.8043 5.2737 12.4097C5.50359 13.0152 5.84054 13.5653 6.26533 14.0287C6.69011 14.4921 7.1944 14.8597 7.74941 15.1105C8.30441 15.3613 8.89927 15.4904 9.5 15.4904C10.1007 15.4904 10.6956 15.3613 11.2506 15.1105C11.8056 14.8597 12.3099 14.4921 12.7347 14.0287C13.1595 13.5653 13.4964 13.0152 13.7263 12.4097C13.9562 11.8043 14.0745 11.1553 14.0745 10.5H15Z"/>
</mask>
<path d="M15 10.5C15 11.2879 14.8577 12.0681 14.5813 12.7961C14.3049 13.5241 13.8998 14.1855 13.3891 14.7426C12.8784 15.2998 12.272 15.7417 11.6048 16.0433C10.9375 16.3448 10.2223 16.5 9.5 16.5C8.77773 16.5 8.06253 16.3448 7.39524 16.0433C6.72795 15.7417 6.12163 15.2998 5.61091 14.7426C5.10019 14.1855 4.69506 13.5241 4.41866 12.7961C4.14226 12.0681 4 11.2879 4 10.5H4.92548C4.92548 11.1553 5.0438 11.8043 5.2737 12.4097C5.50359 13.0152 5.84054 13.5653 6.26533 14.0287C6.69011 14.4921 7.1944 14.8597 7.74941 15.1105C8.30441 15.3613 8.89927 15.4904 9.5 15.4904C10.1007 15.4904 10.6956 15.3613 11.2506 15.1105C11.8056 14.8597 12.3099 14.4921 12.7347 14.0287C13.1595 13.5653 13.4964 13.0152 13.7263 12.4097C13.9562 11.8043 14.0745 11.1553 14.0745 10.5H15Z" stroke="black" stroke-width="2" mask="url(#path-4-inside-1_350_23508)"/>
</svg>
