<svg width="19" height="20" viewBox="0 0 19 20" fill="none" xmlns="http://www.w3.org/2000/svg">
<circle cx="9.5" cy="10" r="9.5" fill="#AADB1E" fill-opacity="0.45"/>
<path d="M15 6.63429C15 7.6894 13 9.50002 13 9.50002C13 9.50002 11 7.6894 11 6.63429C11 5.57917 12 4.72385 13 6.63451C14 4.72385 15 5.57917 15 6.63429Z" fill="black"/>
<path d="M8 6.63429C8 7.6894 6 9.50002 6 9.50002C6 9.50002 4 7.6894 4 6.63429C4 5.57917 5 4.72385 6 6.63451C7 4.72385 8 5.57917 8 6.63429Z" fill="black"/>
<mask id="path-4-inside-1_350_23496" fill="white">
<path d="M15 10.5C15 11.2879 14.8577 12.0681 14.5813 12.7961C14.3049 13.5241 13.8998 14.1855 13.3891 14.7426C12.8784 15.2998 12.272 15.7417 11.6048 16.0433C10.9375 16.3448 10.2223 16.5 9.5 16.5C8.77773 16.5 8.06253 16.3448 7.39524 16.0433C6.72795 15.7417 6.12163 15.2998 5.61091 14.7426C5.10019 14.1855 4.69506 13.5241 4.41866 12.7961C4.14226 12.0681 4 11.2879 4 10.5L9.5 10.5H15Z"/>
</mask>
<path d="M15 10.5C15 11.2879 14.8577 12.0681 14.5813 12.7961C14.3049 13.5241 13.8998 14.1855 13.3891 14.7426C12.8784 15.2998 12.272 15.7417 11.6048 16.0433C10.9375 16.3448 10.2223 16.5 9.5 16.5C8.77773 16.5 8.06253 16.3448 7.39524 16.0433C6.72795 15.7417 6.12163 15.2998 5.61091 14.7426C5.10019 14.1855 4.69506 13.5241 4.41866 12.7961C4.14226 12.0681 4 11.2879 4 10.5L9.5 10.5H15Z" stroke="black" stroke-width="2" mask="url(#path-4-inside-1_350_23496)"/>
</svg>
